<?xml version="1.0" encoding="utf-8"?>
<!-- Generator: Adobe Illustrator 21.1.0, SVG Export Plug-In . SVG Version: 6.00 Build 0)  -->
<svg version="1.1" id="Layer_1" xmlns="http://www.w3.org/2000/svg" xmlns:xlink="http://www.w3.org/1999/xlink" x="0px" y="0px"
	 viewBox="0 0 11 6.6" style="enable-background:new 0 0 11 6.6;" xml:space="preserve">
<style type="text/css">
	.st0{fill:#E30613;}
</style>
<path class="st0" d="M0.2,4.9l4.7-4.6c0.4-0.4,0.9-0.4,1.3,0c0,0,0,0,0,0L10.7,5c0.4,0.4,0.3,1,0,1.3c-0.4,0.4-0.9,0.4-1.3,0
	c0,0,0,0,0,0L5.5,2.3l-4,3.9c-0.4,0.4-0.9,0.4-1.3,0c0,0,0,0,0,0C-0.1,5.8-0.1,5.2,0.2,4.9z"/>
</svg>
